<svg xmlns="http://www.w3.org/2000/svg" viewBox="0 0 800 420" fill="none">
  <rect width="800" height="420" rx="12" fill="#0F1117"/>
  <text x="400" y="35" text-anchor="middle" fill="#E2E8F0" font-family="sans-serif" font-size="16" font-weight="bold">Architecture Comparison</text>
  <!-- Column 1: Fetch.ai -->
  <rect x="30" y="55" width="230" height="340" rx="10" fill="#1E293B" stroke="#818CF8" stroke-width="1.5"/>
  <text x="145" y="82" text-anchor="middle" fill="#A5B4FC" font-family="sans-serif" font-size="14" font-weight="bold">Fetch.ai</text>
  <rect x="65" y="100" width="160" height="36" rx="6" fill="#312E81"/>
  <text x="145" y="123" text-anchor="middle" fill="#C7D2FE" font-family="sans-serif" font-size="11">Autonomous Agents</text>
  <text x="145" y="155" text-anchor="middle" fill="#818CF8" font-family="sans-serif" font-size="16">↓</text>
  <rect x="65" y="168" width="160" height="36" rx="6" fill="#312E81"/>
  <text x="145" y="191" text-anchor="middle" fill="#C7D2FE" font-family="sans-serif" font-size="11">Agent Communication</text>
  <text x="145" y="223" text-anchor="middle" fill="#818CF8" font-family="sans-serif" font-size="16">↓</text>
  <rect x="65" y="236" width="160" height="36" rx="6" fill="#312E81"/>
  <text x="145" y="259" text-anchor="middle" fill="#C7D2FE" font-family="sans-serif" font-size="11">Fetch Blockchain</text>
  <text x="145" y="291" text-anchor="middle" fill="#818CF8" font-family="sans-serif" font-size="16">↓</text>
  <rect x="65" y="304" width="160" height="36" rx="6" fill="#312E81"/>
  <text x="145" y="327" text-anchor="middle" fill="#C7D2FE" font-family="sans-serif" font-size="11">Task Execution</text>
  <text x="145" y="370" text-anchor="middle" fill="#94A3B8" font-family="sans-serif" font-size="10">Agent-first design</text>
  <!-- Column 2: SingularityNET -->
  <rect x="285" y="55" width="230" height="340" rx="10" fill="#1E293B" stroke="#A78BFA" stroke-width="1.5"/>
  <text x="400" y="82" text-anchor="middle" fill="#C4B5FD" font-family="sans-serif" font-size="14" font-weight="bold">SingularityNET</text>
  <rect x="320" y="100" width="160" height="36" rx="6" fill="#3B1F7E"/>
  <text x="400" y="123" text-anchor="middle" fill="#DDD6FE" font-family="sans-serif" font-size="11">AI Marketplace</text>
  <text x="400" y="155" text-anchor="middle" fill="#A78BFA" font-family="sans-serif" font-size="16">↓</text>
  <rect x="320" y="168" width="160" height="36" rx="6" fill="#3B1F7E"/>
  <text x="400" y="191" text-anchor="middle" fill="#DDD6FE" font-family="sans-serif" font-size="11">Service Registry</text>
  <text x="400" y="223" text-anchor="middle" fill="#A78BFA" font-family="sans-serif" font-size="16">↓</text>
  <rect x="320" y="236" width="160" height="36" rx="6" fill="#3B1F7E"/>
  <text x="400" y="259" text-anchor="middle" fill="#DDD6FE" font-family="sans-serif" font-size="11">AI Services</text>
  <text x="400" y="291" text-anchor="middle" fill="#A78BFA" font-family="sans-serif" font-size="16">↓</text>
  <rect x="320" y="304" width="160" height="36" rx="6" fill="#3B1F7E"/>
  <text x="400" y="327" text-anchor="middle" fill="#DDD6FE" font-family="sans-serif" font-size="11">Multi-chain Settlement</text>
  <text x="400" y="370" text-anchor="middle" fill="#94A3B8" font-family="sans-serif" font-size="10">Marketplace-first design</text>
  <!-- Column 3: Ocean Protocol -->
  <rect x="540" y="55" width="230" height="340" rx="10" fill="#1E293B" stroke="#22D3EE" stroke-width="1.5"/>
  <text x="655" y="82" text-anchor="middle" fill="#67E8F9" font-family="sans-serif" font-size="14" font-weight="bold">Ocean Protocol</text>
  <rect x="575" y="100" width="160" height="36" rx="6" fill="#0C4A6E"/>
  <text x="655" y="123" text-anchor="middle" fill="#BAE6FD" font-family="sans-serif" font-size="11">Data Tokens</text>
  <text x="655" y="155" text-anchor="middle" fill="#22D3EE" font-family="sans-serif" font-size="16">↓</text>
  <rect x="575" y="168" width="160" height="36" rx="6" fill="#0C4A6E"/>
  <text x="655" y="191" text-anchor="middle" fill="#BAE6FD" font-family="sans-serif" font-size="11">Data Marketplace</text>
  <text x="655" y="223" text-anchor="middle" fill="#22D3EE" font-family="sans-serif" font-size="16">↓</text>
  <rect x="575" y="236" width="160" height="36" rx="6" fill="#0C4A6E"/>
  <text x="655" y="259" text-anchor="middle" fill="#BAE6FD" font-family="sans-serif" font-size="11">Compute-to-Data</text>
  <text x="655" y="291" text-anchor="middle" fill="#22D3EE" font-family="sans-serif" font-size="16">↓</text>
  <rect x="575" y="304" width="160" height="36" rx="6" fill="#0C4A6E"/>
  <text x="655" y="327" text-anchor="middle" fill="#BAE6FD" font-family="sans-serif" font-size="11">Privacy-Preserving AI</text>
  <text x="655" y="370" text-anchor="middle" fill="#94A3B8" font-family="sans-serif" font-size="10">Data-first design</text>
</svg>