<svg xmlns="http://www.w3.org/2000/svg" viewBox="0 0 1200 630" fill="none">
  <defs>
    <linearGradient id="bg" x1="0" y1="0" x2="1200" y2="630" gradientUnits="userSpaceOnUse">
      <stop offset="0%" stop-color="#0a0a1a"/>
      <stop offset="100%" stop-color="#1a0a2e"/>
    </linearGradient>
    <linearGradient id="g1" x1="0" y1="0" x2="1" y2="1">
      <stop offset="0%" stop-color="#3b82f6"/>
      <stop offset="100%" stop-color="#8b5cf6"/>
    </linearGradient>
    <linearGradient id="g2" x1="0" y1="0" x2="1" y2="1">
      <stop offset="0%" stop-color="#06b6d4"/>
      <stop offset="100%" stop-color="#3b82f6"/>
    </linearGradient>
    <linearGradient id="g3" x1="0" y1="0" x2="1" y2="1">
      <stop offset="0%" stop-color="#8b5cf6"/>
      <stop offset="100%" stop-color="#ec4899"/>
    </linearGradient>
    <linearGradient id="g4" x1="0" y1="0" x2="1" y2="1">
      <stop offset="0%" stop-color="#10b981"/>
      <stop offset="100%" stop-color="#06b6d4"/>
    </linearGradient>
  </defs>
  <rect width="1200" height="630" fill="url(#bg)"/>
  <!-- Grid pattern -->
  <g opacity="0.05" stroke="#fff" stroke-width="1">
    <line x1="0" y1="0" x2="0" y2="630"/><line x1="100" y1="0" x2="100" y2="630"/>
    <line x1="200" y1="0" x2="200" y2="630"/><line x1="300" y1="0" x2="300" y2="630"/>
    <line x1="400" y1="0" x2="400" y2="630"/><line x1="500" y1="0" x2="500" y2="630"/>
    <line x1="600" y1="0" x2="600" y2="630"/><line x1="700" y1="0" x2="700" y2="630"/>
    <line x1="800" y1="0" x2="800" y2="630"/><line x1="900" y1="0" x2="900" y2="630"/>
    <line x1="1000" y1="0" x2="1000" y2="630"/><line x1="1100" y1="0" x2="1100" y2="630"/>
    <line x1="0" y1="100" x2="1200" y2="100"/><line x1="0" y1="200" x2="1200" y2="200"/>
    <line x1="0" y1="300" x2="1200" y2="300"/><line x1="0" y1="400" x2="1200" y2="400"/>
    <line x1="0" y1="500" x2="1200" y2="500"/>
  </g>
  <!-- 4 framework blocks -->
  <rect x="100" y="150" width="200" height="200" rx="16" fill="url(#g1)" opacity="0.15" stroke="url(#g1)" stroke-width="2"/>
  <rect x="370" y="120" width="200" height="200" rx="16" fill="url(#g2)" opacity="0.15" stroke="url(#g2)" stroke-width="2"/>
  <rect x="640" y="150" width="200" height="200" rx="16" fill="url(#g3)" opacity="0.15" stroke="url(#g3)" stroke-width="2"/>
  <rect x="910" y="130" width="200" height="200" rx="16" fill="url(#g4)" opacity="0.15" stroke="url(#g4)" stroke-width="2"/>
  <!-- Framework icons (abstract) -->
  <circle cx="200" cy="230" r="35" fill="none" stroke="url(#g1)" stroke-width="3"/>
  <path d="M180 230 L200 210 L220 230 L200 250 Z" fill="url(#g1)" opacity="0.6"/>
  <circle cx="470" cy="200" r="35" fill="none" stroke="url(#g2)" stroke-width="3"/>
  <path d="M450 200 H490 M470 180 V220" stroke="url(#g2)" stroke-width="4"/>
  <circle cx="740" cy="230" r="35" fill="none" stroke="url(#g3)" stroke-width="3"/>
  <path d="M720 215 L740 245 L760 215" fill="none" stroke="url(#g3)" stroke-width="4"/>
  <circle cx="1010" cy="210" r="35" fill="none" stroke="url(#g4)" stroke-width="3"/>
  <path d="M990 210 Q1010 180 1030 210 Q1010 240 990 210" fill="url(#g4)" opacity="0.4"/>
  <!-- Labels -->
  <text x="200" y="295" text-anchor="middle" fill="#3b82f6" font-family="system-ui" font-size="16" font-weight="600">LangChain</text>
  <text x="470" y="265" text-anchor="middle" fill="#06b6d4" font-family="system-ui" font-size="16" font-weight="600">AutoGPT</text>
  <text x="740" y="295" text-anchor="middle" fill="#8b5cf6" font-family="system-ui" font-size="16" font-weight="600">CrewAI</text>
  <text x="1010" y="275" text-anchor="middle" fill="#10b981" font-family="system-ui" font-size="16" font-weight="600">Semantic Kernel</text>
  <!-- Connecting lines -->
  <line x1="300" y1="250" x2="370" y2="220" stroke="#ffffff" stroke-width="1" opacity="0.2" stroke-dasharray="4"/>
  <line x1="570" y1="220" x2="640" y2="250" stroke="#ffffff" stroke-width="1" opacity="0.2" stroke-dasharray="4"/>
  <line x1="840" y1="250" x2="910" y2="230" stroke="#ffffff" stroke-width="1" opacity="0.2" stroke-dasharray="4"/>
  <!-- VS labels -->
  <text x="335" y="225" text-anchor="middle" fill="#fff" font-family="system-ui" font-size="14" opacity="0.4">vs</text>
  <text x="605" y="225" text-anchor="middle" fill="#fff" font-family="system-ui" font-size="14" opacity="0.4">vs</text>
  <text x="875" y="230" text-anchor="middle" fill="#fff" font-family="system-ui" font-size="14" opacity="0.4">vs</text>
  <!-- Bottom bar chart hint -->
  <rect x="150" y="420" width="40" height="120" rx="4" fill="url(#g1)" opacity="0.3"/>
  <rect x="220" y="450" width="40" height="90" rx="4" fill="url(#g2)" opacity="0.3"/>
  <rect x="290" y="440" width="40" height="100" rx="4" fill="url(#g3)" opacity="0.3"/>
  <rect x="360" y="460" width="40" height="80" rx="4" fill="url(#g4)" opacity="0.3"/>
  <rect x="500" y="430" width="40" height="110" rx="4" fill="url(#g1)" opacity="0.3"/>
  <rect x="570" y="470" width="40" height="70" rx="4" fill="url(#g2)" opacity="0.3"/>
  <rect x="640" y="410" width="40" height="130" rx="4" fill="url(#g3)" opacity="0.3"/>
  <rect x="710" y="450" width="40" height="90" rx="4" fill="url(#g4)" opacity="0.3"/>
  <rect x="850" y="440" width="40" height="100" rx="4" fill="url(#g1)" opacity="0.3"/>
  <rect x="920" y="420" width="40" height="120" rx="4" fill="url(#g2)" opacity="0.3"/>
  <rect x="990" y="460" width="40" height="80" rx="4" fill="url(#g3)" opacity="0.3"/>
  <!-- Glow effects -->
  <circle cx="200" cy="230" r="80" fill="url(#g1)" opacity="0.05"/>
  <circle cx="470" cy="200" r="80" fill="url(#g2)" opacity="0.05"/>
  <circle cx="740" cy="230" r="80" fill="url(#g3)" opacity="0.05"/>
  <circle cx="1010" cy="210" r="80" fill="url(#g4)" opacity="0.05"/>
</svg>